<svg width="631" height="357" viewBox="0 0 631 357" fill="none" xmlns="http://www.w3.org/2000/svg">
<g filter="url(#filter0_d_1_73)">
<rect x="4" width="585" height="342" rx="30" fill="url(#paint0_linear_1_73)" style="mix-blend-mode:multiply" shape-rendering="crispEdges"/>
</g>
<g clip-path="url(#clip0_1_73)">
<path d="M541 177C491.299 177 451 217.299 451 267C451 316.701 491.299 357 541 357C590.701 357 631 316.701 631 267C631 217.299 590.701 177 541 177ZM541 341.732C499.737 341.732 466.268 308.263 466.268 267C466.268 225.737 499.737 192.268 541 192.268C582.263 192.268 615.732 225.737 615.732 267C615.732 308.263 582.263 341.732 541 341.732Z" fill="#683131" fill-opacity="0.889475" style="mix-blend-mode:color-burn"/>
<path d="M523.844 246.569C523.844 251.672 526.998 255.629 533.788 258.08C534.732 258.462 535.676 258.763 536.801 259.085V234.174C529.368 235.118 523.844 239.277 523.844 246.569ZM547.248 273.73C546.665 273.609 546.103 273.469 545.48 273.288V300.147C554.038 299.384 559.944 294.663 559.944 286.808C559.944 280.641 556.75 276.623 547.248 273.73Z" fill="#FF0F0F" style="mix-blend-mode:color-dodge"/>
<path d="M541 192.268C499.737 192.268 466.268 225.737 466.268 267C466.268 308.263 499.737 341.732 541 341.732C582.263 341.732 615.732 308.263 615.732 267C615.732 225.737 582.263 192.268 541 192.268ZM545.5 310.634L545.54 317.002C545.54 317.906 544.817 318.629 543.933 318.629H538.228C537.344 318.629 536.621 317.906 536.621 317.022V310.714C518.741 309.408 510.364 299.243 509.46 288.194C509.379 287.25 510.123 286.446 511.067 286.446H520.348C521.132 286.446 521.815 287.009 521.935 287.772C522.96 294.161 527.942 298.902 536.821 300.087V271.42L531.859 270.154C521.353 267.643 511.348 261.094 511.348 247.513C511.348 232.848 522.478 224.993 536.701 223.607V216.978C536.701 216.094 537.424 215.371 538.308 215.371H543.953C544.837 215.371 545.56 216.094 545.56 216.978V223.547C559.321 224.933 569.627 232.969 570.853 245.484C570.872 245.708 570.845 245.933 570.773 246.146C570.701 246.358 570.586 246.554 570.436 246.72C570.285 246.886 570.101 247.019 569.896 247.11C569.691 247.202 569.47 247.25 569.246 247.252H560.225C559.422 247.252 558.739 246.67 558.638 245.866C557.835 240 553.114 235.219 545.48 234.174V261.154L550.583 262.339C563.6 265.554 572.46 271.781 572.48 285.723C572.48 300.83 561.23 309.248 545.5 310.634V310.634Z" fill="#FF0F0F" style="mix-blend-mode:color-dodge"/>
<path d="M550.583 262.339L545.48 261.154V234.174C553.114 235.219 557.835 240 558.638 245.866C558.739 246.67 559.422 247.252 560.225 247.252H569.246C570.19 247.252 570.933 246.429 570.853 245.484C569.627 232.969 559.321 224.933 545.56 223.547V216.978C545.56 216.094 544.837 215.371 543.953 215.371H538.308C537.424 215.371 536.701 216.094 536.701 216.978V223.607C522.478 224.993 511.348 232.848 511.348 247.513C511.348 261.094 521.353 267.643 531.859 270.154L536.821 271.42V300.087C527.942 298.902 522.96 294.161 521.935 287.772C521.815 287.009 521.132 286.446 520.348 286.446H511.067C510.123 286.446 509.379 287.25 509.46 288.194C510.364 299.243 518.741 309.408 536.621 310.714V317.022C536.621 317.906 537.344 318.629 538.228 318.629H543.933C544.817 318.629 545.54 317.906 545.54 317.002L545.5 310.634C561.23 309.248 572.48 300.83 572.48 285.723C572.46 271.781 563.6 265.554 550.583 262.339V262.339ZM536.801 259.085C535.676 258.763 534.732 258.462 533.788 258.08C526.998 255.629 523.844 251.672 523.844 246.569C523.844 239.277 529.368 235.118 536.801 234.174V259.085ZM545.48 300.147V273.288C546.103 273.469 546.665 273.609 547.248 273.73C556.75 276.623 559.944 280.641 559.944 286.808C559.944 294.663 554.038 299.384 545.48 300.147Z" fill="#683131" fill-opacity="0.889475" style="mix-blend-mode:color-burn"/>
</g>
<defs>
<filter id="filter0_d_1_73" x="0" y="0" width="593" height="350" filterUnits="userSpaceOnUse" color-interpolation-filters="sRGB">
<feFlood flood-opacity="0" result="BackgroundImageFix"/>
<feColorMatrix in="SourceAlpha" type="matrix" values="0 0 0 0 0 0 0 0 0 0 0 0 0 0 0 0 0 0 127 0" result="hardAlpha"/>
<feOffset dy="4"/>
<feGaussianBlur stdDeviation="2"/>
<feComposite in2="hardAlpha" operator="out"/>
<feColorMatrix type="matrix" values="0 0 0 0 0 0 0 0 0 0 0 0 0 0 0 0 0 0 0.25 0"/>
<feBlend mode="normal" in2="BackgroundImageFix" result="effect1_dropShadow_1_73"/>
<feBlend mode="normal" in="SourceGraphic" in2="effect1_dropShadow_1_73" result="shape"/>
</filter>
<linearGradient id="paint0_linear_1_73" x1="296.5" y1="0" x2="296.5" y2="342" gradientUnits="userSpaceOnUse">
<stop stop-color="#CA0202"/>
<stop offset="0.36053" stop-color="#D90606" stop-opacity="0.889475"/>
<stop offset="0.667827" stop-color="#FF1A1A" stop-opacity="0.457175"/>
<stop offset="1" stop-color="#BF0A0A"/>
</linearGradient>
<clipPath id="clip0_1_73">
<rect width="180" height="180" fill="white" transform="translate(451 177)"/>
</clipPath>
</defs>
</svg>
